<svg width="48" height="48" viewBox="0 0 48 48" fill="none" xmlns="http://www.w3.org/2000/svg">
<path fill-rule="evenodd" clip-rule="evenodd" d="M1.23433 20.2182C0.171177 14.1431 2.72273 7.30854 8.94974 5.33413C15.4198 3.29896 21.343 6.82253 23.9857 10.2246C26.6588 6.82253 32.5516 3.29896 39.0216 5.33413C45.2487 7.30854 47.8306 14.1431 46.7674 20.2182C45.0968 29.8169 34.6779 39.3245 25.5349 42.9696C24.5021 43.3645 23.4997 43.3645 22.4669 42.9696C13.3846 39.4156 2.90499 29.8169 1.23433 20.2182Z" fill="url(#paint0_radial_55_9302)"/>
<path style="mix-blend-mode:multiply" opacity="0.75" fill-rule="evenodd" clip-rule="evenodd" d="M25.717 8.40281C31.0631 4.4236 37.9584 7.24853 41.0871 11.8049C43.3956 15.1766 44.2158 19.9456 42.6666 25.0183C40.3581 32.5211 30.243 39.9327 23.9856 40.2972C19.2166 40.5706 13.749 37.4116 8.46362 33.2501C12.534 37.5634 17.6978 41.1174 22.4668 42.9703C23.4996 43.3652 24.502 43.3652 25.5347 42.9703C34.7082 39.3556 45.0967 29.848 46.7673 20.2189C47.8305 14.1742 45.2485 7.30928 39.0215 5.33486C33.7058 3.6642 28.7849 5.72975 25.717 8.40281Z" fill="url(#paint1_radial_55_9302)"/>
<path style="mix-blend-mode:multiply" opacity="0.75" fill-rule="evenodd" clip-rule="evenodd" d="M20.5837 14.9943C20.8571 14.5083 22.8618 11.4404 24.0161 10.2253C21.3431 6.82327 15.4198 3.29969 8.9498 5.33486C5.6996 6.36763 3.42143 8.73693 2.17603 11.653C6.73237 3.33007 20.371 6.155 19.9762 13.2933C19.9762 13.7489 19.9458 14.1742 19.8547 14.5994C19.7635 15.0854 19.7332 15.3588 19.9154 15.45C20.0977 15.5107 20.371 15.3892 20.5837 14.9943Z" fill="url(#paint2_radial_55_9302)"/>
<path style="mix-blend-mode:screen" fill-rule="evenodd" clip-rule="evenodd" d="M27.9345 38.1406C32.096 36.6218 36.3486 33.7969 39.2039 29.9088C41.2694 27.1142 41.8162 25.5043 38.0496 28.5419C34.3438 31.5187 30.9721 33.5539 27.2966 35.7713C22.558 38.6266 22.2239 40.2365 27.9345 38.1406Z" fill="url(#paint3_radial_55_9302)"/>
<path style="mix-blend-mode:screen" fill-rule="evenodd" clip-rule="evenodd" d="M31.1848 6.76245C29.2711 6.76245 27.6916 7.24846 26.3854 8.19011C22.1936 11.2277 19.8851 16.0574 19.3687 21.1301C19.0953 23.9247 19.2168 26.9926 20.7659 27.3875C21.3735 27.5394 22.1329 26.8711 23.1352 25.6561C25.4742 22.8615 27.0233 20.3707 29.5141 18.1837C33.5237 14.6297 35.407 14.326 38.3231 14.5082C40.1456 14.6297 40.7531 14.7816 41.1176 14.326C41.4821 13.84 41.4518 12.8376 40.2975 11.2884C38.3838 8.67612 34.5565 6.8232 31.1544 6.79283L31.1848 6.76245Z" fill="url(#paint4_radial_55_9302)"/>
<path style="mix-blend-mode:screen" fill-rule="evenodd" clip-rule="evenodd" d="M28.1168 7.46115C24.1072 9.01031 20.4925 15.1766 20.0976 18.9128C19.9761 19.9759 20.2191 20.7049 20.5229 20.7353C21.0393 20.7961 21.6468 20.0367 22.3758 19.0039C23.0137 18.0319 24.168 16.5131 25.0792 15.5107C28.056 12.3213 29.9697 11.41 34.1616 10.6202C35.7715 10.3165 36.5612 10.0127 36.622 9.40519C36.6827 8.7673 35.893 7.85603 34.4349 7.33965C32.6428 6.73213 30.0608 6.67138 28.0864 7.43077L28.1168 7.46115Z" fill="url(#paint5_radial_55_9302)"/>
<path style="mix-blend-mode:screen" fill-rule="evenodd" clip-rule="evenodd" d="M30.0607 7.85609C27.6306 8.3421 25.474 9.8305 24.1374 12.0176C23.8337 12.5339 23.7426 13.0503 23.9248 13.263C24.1071 13.4756 24.5019 13.3845 25.0791 13.0807C25.9296 12.6251 27.2661 11.8353 28.5115 11.1974C29.5747 10.6506 30.5771 10.2861 31.0935 10.1343C33.4931 9.49637 33.6146 7.15745 30.0607 7.85609Z" fill="url(#paint6_radial_55_9302)"/>
<path style="mix-blend-mode:screen" fill-rule="evenodd" clip-rule="evenodd" d="M3.45156 10.0127C-0.527653 14.5083 1.59864 21.8896 2.63142 24.0766C3.11743 25.1094 3.60344 26.1422 4.08945 26.9927C4.75771 28.1774 6.70175 30.3948 6.67138 27.8129C6.67138 27.2661 6.61063 26.5371 6.67138 25.8081C6.94476 19.4899 8.55467 14.4172 16.9383 15.0247C18.6698 15.1462 19.581 15.6018 19.824 13.4452C19.9152 12.5643 19.824 11.4708 19.1558 10.4987C15.6929 5.36525 7.37002 5.57788 3.45156 10.0127Z" fill="url(#paint7_radial_55_9302)"/>
<path style="mix-blend-mode:screen" fill-rule="evenodd" clip-rule="evenodd" d="M7.15764 7.79534C3.05693 9.49638 0.991381 14.1135 1.59889 18.5787C1.75077 19.6418 2.11528 20.3709 2.44941 20.4316C2.9658 20.4924 3.45181 19.733 3.93782 18.6698C4.39345 17.6978 4.97059 16.4828 5.66923 15.45C7.97778 12.1998 9.67882 11.4404 13.2024 10.4988C15.1464 9.98239 15.6021 9.76976 15.6324 9.28375C15.754 7.12707 10.5597 6.36768 7.15764 7.79534Z" fill="url(#paint8_radial_55_9302)"/>
<path style="mix-blend-mode:screen" fill-rule="evenodd" clip-rule="evenodd" d="M9.34457 7.61311C6.79301 8.15987 4.72747 9.76978 3.75545 12.1998C3.51244 12.777 3.57319 13.3541 3.8162 13.5667C4.05921 13.7794 4.48446 13.6882 5.03123 13.3541C5.88174 12.8681 7.15752 11.9568 8.37255 11.2886C9.4357 10.681 10.4381 10.2862 10.9849 10.1343C13.4757 9.43565 13.0808 6.85372 9.34457 7.64348V7.61311ZM1.99366 16.0575C1.81141 17.0903 2.35817 19.1255 3.26944 17.8193C3.60357 17.3333 3.87695 16.7562 4.08958 16.179C4.27183 15.7234 4.15033 14.9033 3.66432 14.5995C2.60117 13.9312 2.08479 15.3285 1.96328 16.0575H1.99366Z" fill="url(#paint9_radial_55_9302)"/>
<defs>
<radialGradient id="paint0_radial_55_9302" cx="0" cy="0" r="1" gradientUnits="userSpaceOnUse" gradientTransform="translate(12.2607 13.2014) scale(40.8856 40.8856)">
<stop stop-color="#FF2B2F"/>
<stop offset="0.08" stop-color="#F02629"/>
<stop offset="0.38" stop-color="#BD1517"/>
<stop offset="0.65" stop-color="#98090A"/>
<stop offset="0.86" stop-color="#820202"/>
<stop offset="1" stop-color="#7A0000"/>
</radialGradient>
<radialGradient id="paint1_radial_55_9302" cx="0" cy="0" r="1" gradientUnits="userSpaceOnUse" gradientTransform="translate(15.3589 18.9128) scale(35.8737)">
<stop offset="0.59" stop-color="white"/>
<stop offset="0.67" stop-color="#EDCECE"/>
<stop offset="0.86" stop-color="#C15757"/>
<stop offset="1" stop-color="#A20000"/>
</radialGradient>
<radialGradient id="paint2_radial_55_9302" cx="0" cy="0" r="1" gradientUnits="userSpaceOnUse" gradientTransform="translate(7.21838 15.5411) scale(17.8609)">
<stop offset="0.41" stop-color="white"/>
<stop offset="0.5" stop-color="#EDCECE"/>
<stop offset="0.64" stop-color="#D28686"/>
<stop offset="0.76" stop-color="#BD4C4C"/>
<stop offset="0.87" stop-color="#AE2222"/>
<stop offset="0.95" stop-color="#A50909"/>
<stop offset="1" stop-color="#A20000"/>
</radialGradient>
<radialGradient id="paint3_radial_55_9302" cx="0" cy="0" r="1" gradientUnits="userSpaceOnUse" gradientTransform="translate(18.3662 13.7793) scale(34.932 34.932)">
<stop stop-color="#FF6969"/>
<stop offset="1"/>
</radialGradient>
<radialGradient id="paint4_radial_55_9302" cx="0" cy="0" r="1" gradientUnits="userSpaceOnUse" gradientTransform="translate(28.0561 26.6889) scale(36.5115 36.5115)">
<stop/>
<stop offset="0.1" stop-color="#120707"/>
<stop offset="0.31" stop-color="#411A1A"/>
<stop offset="0.6" stop-color="#8D3838"/>
<stop offset="0.96" stop-color="#F46161"/>
<stop offset="1" stop-color="#FF6666"/>
</radialGradient>
<radialGradient id="paint5_radial_55_9302" cx="0" cy="0" r="1" gradientUnits="userSpaceOnUse" gradientTransform="translate(28.1168 18.0319) scale(25.8497 25.8497)">
<stop/>
<stop offset="1" stop-color="#FF6666"/>
</radialGradient>
<radialGradient id="paint6_radial_55_9302" cx="0" cy="0" r="1" gradientUnits="userSpaceOnUse" gradientTransform="translate(32.187 18.4572) scale(13.7298)">
<stop/>
<stop offset="1" stop-color="#FFACAC"/>
</radialGradient>
<radialGradient id="paint7_radial_55_9302" cx="0" cy="0" r="1" gradientUnits="userSpaceOnUse" gradientTransform="translate(9.49631 26.0511) scale(28.0671 28.0671)">
<stop/>
<stop offset="0.1" stop-color="#120707"/>
<stop offset="0.31" stop-color="#411A1A"/>
<stop offset="0.6" stop-color="#8D3838"/>
<stop offset="0.96" stop-color="#F46161"/>
<stop offset="1" stop-color="#FF6666"/>
</radialGradient>
<radialGradient id="paint8_radial_55_9302" cx="0" cy="0" r="1" gradientUnits="userSpaceOnUse" gradientTransform="translate(10.0433 16.7865) scale(19.6531 19.6531)">
<stop/>
<stop offset="1" stop-color="#FF6666"/>
</radialGradient>
<radialGradient id="paint9_radial_55_9302" cx="0" cy="0" r="1" gradientUnits="userSpaceOnUse" gradientTransform="translate(14.0224 21.4948) scale(18.1343 18.1343)">
<stop/>
<stop offset="1" stop-color="#FFACAC"/>
</radialGradient>
</defs>
</svg>
