<svg width="48" height="48" viewBox="0 0 48 48" fill="none" xmlns="http://www.w3.org/2000/svg">
<path fill-rule="evenodd" clip-rule="evenodd" d="M17.7877 23.9778C15.9439 24.1215 12.2322 24.1455 10.3405 24.0497C10.125 24.0497 9.95738 23.93 9.83765 23.7623C10.0771 24.1934 11.011 25.4864 11.4899 25.9654C11.6096 26.133 12.8069 27.5697 13.0225 27.5937C13.8366 27.6416 15.01 27.6655 16.2073 27.6655C16.7341 26.3964 17.2609 25.1751 17.7877 23.9778Z" fill="url(#paint0_radial_55_9420)"/>
<path fill-rule="evenodd" clip-rule="evenodd" d="M35.1723 2.40252C32.5862 6.54517 29.3295 11.4541 26.5039 15.5728C27.9646 15.501 29.9042 15.4531 31.6762 15.4531C33.8074 12.2683 35.9865 8.91582 37.8543 5.97047C37.974 5.7789 37.9501 5.49155 37.9022 5.34787C37.6148 4.70133 35.6273 2.11517 35.1005 1.6123C35.316 1.99544 35.2921 2.21095 35.1723 2.40252Z" fill="url(#paint1_radial_55_9420)"/>
<path fill-rule="evenodd" clip-rule="evenodd" d="M35.4597 16.5306C28.7548 25.223 21.3316 33.7717 14.2675 41.0273C13.2378 42.081 11.5137 43.6614 11.1545 43.4698C11.2503 43.7332 13.3815 46.5589 13.7886 46.966C14.2196 47.2294 15.9437 45.625 16.9734 44.5953C24.0375 37.3397 31.4607 28.791 38.1656 20.0986C38.3093 19.907 38.2853 19.5718 38.2374 19.4281C37.8543 18.8055 36.0344 16.387 35.5315 15.8123C35.6752 16.0996 35.6513 16.3391 35.4836 16.5306H35.4597Z" fill="url(#paint2_radial_55_9420)"/>
<path style="mix-blend-mode:multiply" opacity="0.5" fill-rule="evenodd" clip-rule="evenodd" d="M35.0767 2.57012C35.6993 3.09693 36.5134 4.03083 36.5853 4.72526C36.9445 7.47905 34.3104 11.1188 32.8497 13.1303C31.7242 14.7107 30.8861 15.2615 29.8564 15.477C30.479 15.477 31.0777 15.477 31.6763 15.477C33.8075 12.2922 35.9866 8.93975 37.8544 5.9944C37.9741 5.80283 37.9502 5.51548 37.9023 5.3718C37.6149 4.72526 35.6274 2.16304 35.1006 1.63623C35.3161 2.01937 35.2922 2.23488 35.1725 2.42645L35.0767 2.59407V2.57012Z" fill="url(#paint3_radial_55_9420)"/>
<path style="mix-blend-mode:multiply" opacity="0.5" fill-rule="evenodd" clip-rule="evenodd" d="M38.1415 19.2845C37.8781 18.8535 36.5131 17.0336 35.7948 16.1476C37.2315 19.1887 37.2315 20.2663 35.268 22.9243C32.8255 26.2049 30.3111 29.4376 27.6771 32.5745C25.2585 35.448 22.7442 38.2258 20.1341 40.8838C18.9607 42.0811 17.6437 43.1586 16.2788 44.1165C14.6744 45.2419 13.07 45.218 11.9446 44.5714C12.639 45.5053 13.549 46.6787 13.7884 46.9421C14.2194 47.2055 15.9436 45.6011 16.9732 44.5714C24.0373 37.3158 31.4605 28.7671 38.1654 20.0747C38.3091 19.8832 38.2851 19.5479 38.2373 19.4042L38.1654 19.2845H38.1415Z" fill="url(#paint4_radial_55_9420)"/>
<path style="mix-blend-mode:screen" fill-rule="evenodd" clip-rule="evenodd" d="M15.7284 45.7687C15.4171 45.9363 15.058 46.0321 14.8664 45.8884C14.5311 45.625 13.2381 43.9248 12.9986 43.5656C12.7352 43.1346 12.831 42.6796 12.9986 42.2965C12.1844 43.0149 11.4182 43.5896 11.1787 43.4698C11.2745 43.7332 13.4057 46.5589 13.8128 46.966C14.1001 47.1575 14.9382 46.511 15.7524 45.7687H15.7284ZM34.6937 17.6561C34.981 17.5364 35.2684 17.4645 35.436 17.6082C35.8431 17.9434 37.1361 19.6676 37.3517 20.0507C37.5193 20.338 37.4714 20.7451 37.3517 21.1043C37.6151 20.7691 37.8785 20.4338 38.1179 20.0986C38.2616 19.907 38.2377 19.5718 38.1898 19.4281C37.8066 18.8055 35.9867 16.387 35.4839 15.8123C35.6275 16.0996 35.6036 16.3391 35.436 16.5306C35.1486 16.9138 34.8613 17.273 34.5739 17.6561H34.6697H34.6937Z" fill="url(#paint5_radial_55_9420)"/>
<path fill-rule="evenodd" clip-rule="evenodd" d="M21.164 1.49267C23.8939 0.91797 31.1974 0.846132 34.7414 1.42084C34.9569 1.46873 35.1485 1.58846 35.2203 1.80397C35.3161 2.01948 35.2922 2.235 35.1724 2.42657C32.5863 6.56922 29.3296 11.4781 26.504 15.5968C29.0183 15.4771 32.8497 15.4292 34.9569 15.5011C35.1964 15.5011 35.4119 15.6447 35.5316 15.8603C35.6274 16.0758 35.6274 16.3392 35.4598 16.5307C28.7549 25.2231 21.3317 33.7718 14.2676 41.0275C13.2379 42.0811 11.5138 43.6615 11.1546 43.4699C10.7954 43.2784 11.3462 41.3866 11.5617 40.4528C12.2561 37.6271 15.1296 30.0123 17.7876 24.0019C15.9438 24.1456 12.2322 24.1695 10.3405 24.0737C10.1249 24.0737 9.95732 23.954 9.83759 23.7864C9.71786 23.6187 9.69391 23.4032 9.76575 23.2117C11.5856 17.7041 17.5482 5.92268 20.3738 1.99554C20.5654 1.73213 20.8288 1.54057 21.164 1.49267Z" fill="url(#paint6_radial_55_9420)"/>
<path style="mix-blend-mode:multiply" fill-rule="evenodd" clip-rule="evenodd" d="M34.1426 11.7415C32.3228 13.3698 28.8266 14.4473 28.0364 13.3458C27.5096 14.1121 27.0068 14.8544 26.5278 15.5728C27.9885 15.501 29.9282 15.4531 31.7002 15.4531C32.5143 14.2318 33.3524 12.9866 34.1666 11.7415H34.1426Z" fill="url(#paint7_radial_55_9420)"/>
<path style="mix-blend-mode:multiply" fill-rule="evenodd" clip-rule="evenodd" d="M15.1535 24.0976C16.1593 24.8639 14.6028 27.3064 12.5913 27.2585C12.7829 27.4501 12.9505 27.5937 12.9984 27.5937C13.8126 27.6416 14.9859 27.6656 16.1832 27.6656C16.71 26.3964 17.2368 25.1752 17.7636 23.9779C17.0931 24.0258 16.1353 24.0737 15.1296 24.0976H15.1535Z" fill="url(#paint8_radial_55_9420)"/>
<path style="mix-blend-mode:screen" fill-rule="evenodd" clip-rule="evenodd" d="M21.4036 4.50976C24.2771 4.03084 28.1803 3.98295 31.1017 4.29425C31.5088 4.34214 31.9638 4.48582 32.2751 4.74922C32.9216 5.27603 32.4906 6.47333 31.9159 7.50301C33.0653 5.75495 34.1668 4.0069 35.1965 2.40252C35.3162 2.21095 35.3401 1.99544 35.2444 1.77992C35.1486 1.56441 34.9809 1.44468 34.7654 1.39679C31.2454 0.822085 23.9419 0.893923 21.1881 1.46863C20.8528 1.54046 20.5894 1.70809 20.3979 1.97149C19.0569 3.83928 16.9975 7.50301 15.01 11.4062C16.3989 9.0595 19.3203 4.84501 21.4036 4.48582V4.50976Z" fill="url(#paint9_radial_55_9420)"/>
<path style="mix-blend-mode:screen" fill-rule="evenodd" clip-rule="evenodd" d="M34.9569 15.501C34.2625 15.4771 33.4005 15.4531 32.4666 15.4531C34.047 15.956 34.047 17.1293 32.7779 18.7816C29.3536 23.2116 20.2781 34.2747 15.8241 37.5313C13.5732 39.1836 12.8309 38.13 12.7351 36.6693C12.1843 38.2736 11.7533 39.5907 11.5378 40.4527C11.3223 41.3387 10.8194 43.1107 11.0828 43.446C11.3462 43.6136 12.1364 43.0149 12.9506 42.2965C13.4056 41.8895 13.8845 41.4345 14.2676 41.0514C20.9965 34.131 28.0605 26.0372 34.5259 17.7759C34.8372 17.3688 35.1485 16.9617 35.4598 16.5546C35.6035 16.3631 35.6274 16.0997 35.5317 15.8842C35.388 15.6447 35.1964 15.525 34.9569 15.525V15.501Z" fill="url(#paint10_radial_55_9420)"/>
<path style="mix-blend-mode:screen" fill-rule="evenodd" clip-rule="evenodd" d="M21.8585 1.85175C21.4994 1.92359 21.1402 2.04332 20.9007 2.30673C18.6977 4.55765 13.3817 14.9981 12.5915 17.7758C12.5436 17.9674 12.4717 18.2787 12.6154 18.4224C12.8309 18.59 13.1662 18.135 13.2619 17.9674C15.2255 14.8544 16.9736 11.6217 18.9132 8.50873C19.895 6.95224 21.0444 5.1563 22.1459 3.69559C22.8403 2.78565 24.1813 2.52224 25.211 2.23489C26.6717 1.82781 26.097 1.46862 25.0194 1.51651C24.0137 1.5644 22.8643 1.66018 21.8346 1.8757L21.8585 1.85175Z" fill="url(#paint11_linear_55_9420)"/>
<path style="mix-blend-mode:screen" fill-rule="evenodd" clip-rule="evenodd" d="M34.2385 15.6686C31.8439 15.6686 29.4253 15.6686 27.0307 15.7644C25.8574 15.8123 26.7673 17.0096 27.5815 17.0575C29.4732 17.1772 32.3228 16.7701 34.1666 16.1715C34.3582 16.0996 34.6455 16.0278 34.6934 15.8123C34.6934 15.6447 34.4061 15.6447 34.2385 15.6447V15.6686Z" fill="url(#paint12_linear_55_9420)"/>
<path style="mix-blend-mode:screen" opacity="0.5" fill-rule="evenodd" clip-rule="evenodd" d="M13.6929 41.6022C13.5492 44.2362 19.5597 39.3991 20.9246 38.13C25.5701 33.8916 31.1016 28.0009 34.2385 22.4693C35.3161 20.5776 35.4598 18.1112 33.8554 18.5662C27.6294 26.4923 20.8527 34.2268 14.3873 40.8838C14.076 41.219 13.8605 41.4106 13.6689 41.6022H13.6929Z" fill="url(#paint13_radial_55_9420)"/>
<path style="mix-blend-mode:screen" fill-rule="evenodd" clip-rule="evenodd" d="M22.0978 6.56915C21.4752 7.04807 20.8526 7.57488 20.4456 8.26931C18.2425 12.0528 16.3269 16.0039 14.3154 19.8831C13.8844 20.6973 13.4294 22.2298 14.938 22.3735C16.71 22.5411 18.482 22.3735 20.254 22.3735C18.4341 26.3725 16.2071 30.4672 14.9859 34.6817C14.6027 35.9748 15.6564 35.9987 16.4945 35.2325C20.3737 31.6406 27.1265 24.2413 29.8803 19.5C30.5986 18.2548 29.3774 17.6801 28.3717 17.6322C26.887 17.5843 25.4024 17.6801 23.9177 17.704C25.6418 14.9023 27.4378 12.1486 29.0901 9.29899C29.3295 8.89191 29.4732 8.41299 29.545 7.95802C29.6408 7.26358 29.3535 6.66493 28.8506 6.20996C28.0843 5.51553 25.9771 5.46764 24.253 5.80288C23.343 5.9705 22.5528 6.25785 22.1218 6.56915H22.0978Z" fill="url(#paint14_radial_55_9420)"/>
<defs>
<radialGradient id="paint0_radial_55_9420" cx="0" cy="0" r="1" gradientUnits="userSpaceOnUse" gradientTransform="translate(7.53883 21.6551) scale(11.8293 11.8293)">
<stop stop-color="#05BAF9"/>
<stop offset="1" stop-color="#0161BA"/>
</radialGradient>
<radialGradient id="paint1_radial_55_9420" cx="0" cy="0" r="1" gradientUnits="userSpaceOnUse" gradientTransform="translate(30.8381 4.72528) scale(28.9986)">
<stop stop-color="#05BAF9"/>
<stop offset="1" stop-color="#0161BA"/>
</radialGradient>
<radialGradient id="paint2_radial_55_9420" cx="0" cy="0" r="1" gradientUnits="userSpaceOnUse" gradientTransform="translate(35.6513 38.6806) scale(54.4292 54.4292)">
<stop stop-color="#0161BA"/>
<stop offset="1" stop-color="#05BAF9"/>
</radialGradient>
<radialGradient id="paint3_radial_55_9420" cx="0" cy="0" r="1" gradientUnits="userSpaceOnUse" gradientTransform="translate(28.731 2.49829) scale(14.2718 14.2718)">
<stop stop-color="white"/>
<stop offset="0.11" stop-color="#F9FAFB"/>
<stop offset="0.26" stop-color="#E9ECF0"/>
<stop offset="0.42" stop-color="#CED5DE"/>
<stop offset="0.6" stop-color="#A9B5C6"/>
<stop offset="0.79" stop-color="#7A8CA6"/>
<stop offset="0.98" stop-color="#405B80"/>
<stop offset="1" stop-color="#3C577D"/>
</radialGradient>
<radialGradient id="paint4_radial_55_9420" cx="0" cy="0" r="1" gradientUnits="userSpaceOnUse" gradientTransform="translate(12.9264 19.1648) scale(30.3395 30.3395)">
<stop stop-color="white"/>
<stop offset="0.11" stop-color="#F9FAFB"/>
<stop offset="0.26" stop-color="#E9ECF0"/>
<stop offset="0.42" stop-color="#CED5DE"/>
<stop offset="0.6" stop-color="#A9B5C6"/>
<stop offset="0.79" stop-color="#7A8CA6"/>
<stop offset="0.98" stop-color="#405B80"/>
<stop offset="1" stop-color="#3C577D"/>
</radialGradient>
<radialGradient id="paint5_radial_55_9420" cx="0" cy="0" r="1" gradientUnits="userSpaceOnUse" gradientTransform="translate(26.097 32.2152) scale(19.5399)">
<stop offset="0.58"/>
<stop offset="0.74" stop-color="#000101"/>
<stop offset="0.79" stop-color="#000808"/>
<stop offset="0.83" stop-color="#001414"/>
<stop offset="0.87" stop-color="#002525"/>
<stop offset="0.89" stop-color="#003B3B"/>
<stop offset="0.92" stop-color="#005656"/>
<stop offset="0.94" stop-color="#007777"/>
<stop offset="0.96" stop-color="#009C9C"/>
<stop offset="0.98" stop-color="#00C7C7"/>
<stop offset="1" stop-color="#00FFFF"/>
</radialGradient>
<radialGradient id="paint6_radial_55_9420" cx="0" cy="0" r="1" gradientUnits="userSpaceOnUse" gradientTransform="translate(19.4399 1.49267) scale(42.1688 42.1688)">
<stop stop-color="#00F6F9"/>
<stop offset="1" stop-color="#0080F9"/>
</radialGradient>
<radialGradient id="paint7_radial_55_9420" cx="0" cy="0" r="1" gradientUnits="userSpaceOnUse" gradientTransform="translate(25.57 9.08345) scale(11.1349 11.1349)">
<stop stop-color="white"/>
<stop offset="0.11" stop-color="#F9FAFB"/>
<stop offset="0.26" stop-color="#E9ECF0"/>
<stop offset="0.42" stop-color="#CED5DE"/>
<stop offset="0.6" stop-color="#A9B5C6"/>
<stop offset="0.79" stop-color="#7A8CA6"/>
<stop offset="0.98" stop-color="#405B80"/>
<stop offset="1" stop-color="#3C577D"/>
</radialGradient>
<radialGradient id="paint8_radial_55_9420" cx="0" cy="0" r="1" gradientUnits="userSpaceOnUse" gradientTransform="translate(12.6631 24.1695) scale(10.6799 10.6799)">
<stop stop-color="white"/>
<stop offset="0.11" stop-color="#F9FAFB"/>
<stop offset="0.26" stop-color="#E9ECF0"/>
<stop offset="0.42" stop-color="#CED5DE"/>
<stop offset="0.6" stop-color="#A9B5C6"/>
<stop offset="0.79" stop-color="#7A8CA6"/>
<stop offset="0.98" stop-color="#405B80"/>
<stop offset="1" stop-color="#3C577D"/>
</radialGradient>
<radialGradient id="paint9_radial_55_9420" cx="0" cy="0" r="1" gradientUnits="userSpaceOnUse" gradientTransform="translate(30.8622 10.7836) scale(22.3655)">
<stop/>
<stop offset="0.08" stop-color="#002222"/>
<stop offset="0.22" stop-color="#005C5C"/>
<stop offset="0.36" stop-color="#008E8E"/>
<stop offset="0.5" stop-color="#00B6B6"/>
<stop offset="0.64" stop-color="#00D6D6"/>
<stop offset="0.77" stop-color="#00ECEC"/>
<stop offset="0.89" stop-color="#00FAFA"/>
<stop offset="1" stop-color="#00FFFF"/>
</radialGradient>
<radialGradient id="paint10_radial_55_9420" cx="0" cy="0" r="1" gradientUnits="userSpaceOnUse" gradientTransform="translate(42.3323 56.9275) scale(44.9466 44.9466)">
<stop stop-color="#00FFFF"/>
<stop offset="0.11" stop-color="#00FAFA"/>
<stop offset="0.23" stop-color="#00ECEC"/>
<stop offset="0.36" stop-color="#00D6D6"/>
<stop offset="0.5" stop-color="#00B6B6"/>
<stop offset="0.64" stop-color="#008E8E"/>
<stop offset="0.78" stop-color="#005C5C"/>
<stop offset="0.92" stop-color="#002222"/>
<stop offset="1"/>
</radialGradient>
<linearGradient id="paint11_linear_55_9420" x1="24.2771" y1="-0.159708" x2="11.6815" y2="23.906" gradientUnits="userSpaceOnUse">
<stop stop-color="#9EDEFC"/>
<stop offset="1"/>
</linearGradient>
<linearGradient id="paint12_linear_55_9420" x1="26.48" y1="16.387" x2="34.6934" y2="16.387" gradientUnits="userSpaceOnUse">
<stop stop-color="#9EDEFC"/>
<stop offset="1"/>
</linearGradient>
<radialGradient id="paint13_radial_55_9420" cx="0" cy="0" r="1" gradientUnits="userSpaceOnUse" gradientTransform="translate(10.3165 10.7837) scale(32.9018 32.9018)">
<stop stop-color="#00FFFF"/>
<stop offset="0.11" stop-color="#00FAFA"/>
<stop offset="0.23" stop-color="#00ECEC"/>
<stop offset="0.36" stop-color="#00D6D6"/>
<stop offset="0.5" stop-color="#00B6B6"/>
<stop offset="0.64" stop-color="#008E8E"/>
<stop offset="0.78" stop-color="#005C5C"/>
<stop offset="0.92" stop-color="#002222"/>
<stop offset="1"/>
</radialGradient>
<radialGradient id="paint14_radial_55_9420" cx="0" cy="0" r="1" gradientUnits="userSpaceOnUse" gradientTransform="translate(3.49181 6.49731) scale(31.0819 31.0819)">
<stop stop-color="#00FFFF"/>
<stop offset="0.11" stop-color="#00FAFA"/>
<stop offset="0.23" stop-color="#00ECEC"/>
<stop offset="0.36" stop-color="#00D6D6"/>
<stop offset="0.5" stop-color="#00B6B6"/>
<stop offset="0.64" stop-color="#008E8E"/>
<stop offset="0.78" stop-color="#005C5C"/>
<stop offset="0.92" stop-color="#002222"/>
<stop offset="1"/>
</radialGradient>
</defs>
</svg>
