<svg width="48" height="48" viewBox="0 0 48 48" fill="none" xmlns="http://www.w3.org/2000/svg">
<path fill-rule="evenodd" clip-rule="evenodd" d="M23.9381 1.98364C23.2444 1.98364 22.6498 2.15707 22.1047 2.50392C20.3209 3.56924 17.1745 9.36658 15.6385 12.4387C15.2421 13.2315 14.5484 13.7517 13.6565 13.8756C10.2623 14.4207 3.77126 15.6099 2.21043 16.9725C1.73971 17.3937 1.36808 17.9139 1.16989 18.5581C0.971686 19.2022 0.946911 19.8464 1.09556 20.4658C1.56628 22.4725 6.1001 27.2789 8.55282 29.7068C9.17219 30.3262 9.44472 31.1685 9.32084 32.0357C8.77579 35.4298 7.90867 41.9704 8.72625 43.8781C8.97399 44.4479 9.37039 44.9682 9.91544 45.3646C10.4605 45.761 11.0799 45.984 11.6992 46.0335C13.7556 46.2069 19.7263 43.3578 22.7736 41.797C23.5664 41.4006 24.4336 41.4006 25.2264 41.797C28.2985 43.3578 34.2444 46.2069 36.3008 46.0335C36.9201 45.984 37.5395 45.761 38.0846 45.3646C38.6296 44.9682 39.026 44.4479 39.2738 43.8781C40.0913 41.9704 39.2242 35.4298 38.6792 32.0357C38.5305 31.1438 38.803 30.3262 39.4472 29.7068C41.8751 27.2789 46.4337 22.4973 46.9044 20.4658C47.0531 19.8464 47.0283 19.2022 46.8301 18.5581C46.6071 17.9139 46.2603 17.3689 45.7896 16.9725C44.2287 15.6099 37.7377 14.4207 34.3435 13.8756C33.4516 13.727 32.7579 13.2315 32.3615 12.4387C30.8007 9.36658 27.6543 3.56924 25.8953 2.50392C25.3502 2.18184 24.7309 1.98364 24.0619 1.98364H23.9381Z" fill="url(#paint0_radial_55_9338)"/>
<path style="mix-blend-mode:screen" opacity="0.5" fill-rule="evenodd" clip-rule="evenodd" d="M21.6837 9.06919C21.5102 9.36649 21.3616 9.61424 21.2625 9.81244C20.4449 11.2246 19.6769 12.6616 18.9336 14.1233C17.9922 15.9814 16.2827 17.2201 14.2016 17.567C12.5912 17.8147 10.9809 18.112 9.3705 18.4589C9.14753 18.5084 8.875 18.558 8.52815 18.6323C7.61148 18.8305 6.91778 19.4747 6.62048 20.3666C6.32318 21.2585 6.52138 22.1751 7.14076 22.8936C7.36373 23.1414 7.56193 23.3643 7.71058 23.5378C8.80068 24.7517 9.94033 25.9409 11.08 27.0806C12.5665 28.5423 13.2106 30.5738 12.8885 32.6302C12.6408 34.2405 12.4178 35.8757 12.2444 37.4861C12.2444 37.709 12.1948 38.0063 12.1701 38.3284C12.071 39.2699 12.4674 40.1122 13.2354 40.682C14.0034 41.2519 14.9201 41.3509 15.7872 40.9545C16.0845 40.8307 16.357 40.7068 16.58 40.6077C18.0665 39.9388 19.553 39.2203 20.99 38.5018C22.8481 37.5604 24.9787 37.5604 26.8368 38.5018C28.2986 39.2451 29.7603 39.9636 31.2468 40.6077C31.445 40.7068 31.7175 40.8059 32.0396 40.9545C32.9067 41.3262 33.8482 41.2271 34.5914 40.682C35.3594 40.137 35.731 39.2699 35.6567 38.3284C35.6319 37.9816 35.6072 37.709 35.5824 37.4861C35.409 35.8757 35.186 34.2405 34.9382 32.6302C34.6162 30.5738 35.2603 28.5423 36.7468 27.0806C37.9112 25.9409 39.0261 24.7517 40.1162 23.5378C40.2649 23.3643 40.4631 23.1414 40.686 22.8936C41.3054 22.1751 41.5036 21.2585 41.2063 20.3666C40.909 19.4747 40.2153 18.8305 39.2986 18.6323C38.9766 18.558 38.6793 18.5084 38.4563 18.4589C36.8707 18.112 35.2603 17.8395 33.6252 17.567C31.5689 17.2449 29.8346 16.0062 28.8932 14.1233C28.1499 12.6616 27.3819 11.2246 26.5643 9.81244C26.4652 9.61424 26.3166 9.36649 26.1431 9.06919C25.6724 8.25161 24.8548 7.80566 23.9134 7.80566C22.972 7.80566 22.1544 8.27639 21.6837 9.06919Z" fill="url(#paint1_radial_55_9338)"/>
<path style="mix-blend-mode:screen" fill-rule="evenodd" clip-rule="evenodd" d="M8.50315 37.8578C16.2577 25.9906 29.0416 17.7157 43.8322 16.0063C41.2061 15.0648 36.8209 14.272 34.2443 13.8508C33.3524 13.7022 32.6587 13.2067 32.2623 12.4139C30.7015 9.3418 27.5551 3.54446 25.7961 2.47914C25.251 2.15706 24.6316 1.95886 23.9627 1.95886C23.2938 1.95886 22.6744 2.13229 22.1294 2.47914C20.3456 3.54446 17.1992 9.3418 15.6631 12.4139C15.2667 13.2067 14.573 13.727 13.6811 13.8508C10.2869 14.3959 3.79591 15.5851 2.23509 16.9477C1.76437 17.3689 1.39274 17.8892 1.19454 18.5333C0.996344 19.1775 0.971569 19.8216 1.12022 20.441C1.59094 22.4477 6.12476 27.2541 8.57748 29.682C9.19685 30.3014 9.46938 31.1438 9.3455 32.0109C9.09775 33.5469 8.77568 35.7519 8.60225 37.8578H8.50315Z" fill="url(#paint2_radial_55_9338)"/>
<g style="mix-blend-mode:multiply">
<path fill-rule="evenodd" clip-rule="evenodd" d="M36.8705 45.7362C34.7151 46.0335 28.447 41.2024 25.2262 38.5515C24.3839 37.8578 23.492 37.8578 22.6497 38.5515C19.4289 41.2024 13.1608 46.0335 11.0054 45.7362C10.3365 45.6371 9.71713 45.2902 9.12253 44.5965C9.02343 44.4727 8.89956 44.324 8.80046 44.2001C9.04821 44.6461 9.39506 45.0425 9.841 45.3646C10.3861 45.761 11.0054 45.9839 11.6248 46.0335C13.6811 46.2069 19.6519 43.3578 22.6992 41.797C23.492 41.4006 24.3591 41.4006 25.1519 41.797C28.224 43.3578 34.17 46.2069 36.2263 46.0335C36.8457 45.9839 37.4651 45.761 38.0101 45.3646C38.4561 45.0425 38.8029 44.6461 39.0507 44.2001C38.9516 44.3488 38.8525 44.4727 38.7286 44.5965C38.134 45.2902 37.5146 45.6371 36.8457 45.7362H36.8705ZM16.5055 13.6031C17.7442 10.2337 20.2465 4.06472 22.0798 2.47913C20.296 3.54445 17.1496 9.34179 15.5888 12.4139C15.1924 13.2067 14.4987 13.727 13.6068 13.8508C10.2126 14.3959 3.72159 15.5851 2.16077 16.9477C4.24187 15.6842 10.8568 15.2382 14.4491 15.0896C15.4401 15.04 16.1586 14.5198 16.5055 13.6031ZM33.3772 15.0896C36.9696 15.2382 43.5845 15.7089 45.6656 16.9477C44.1048 15.5851 37.6137 14.3959 34.2196 13.8508C33.3277 13.7022 32.634 13.2067 32.2376 12.4139C30.6767 9.34179 27.5303 3.54445 25.7465 2.47913C27.5799 4.06472 30.0821 10.2337 31.3209 13.6031C31.6677 14.5198 32.3862 15.0648 33.3772 15.0896ZM11.3771 31.3667C11.7239 30.4005 11.4266 29.5334 10.5843 28.9635C7.53693 26.8081 1.98735 22.6707 1.0459 20.441C1.51662 22.4725 6.05044 27.2541 8.50316 29.682C9.12253 30.3014 9.39506 31.1437 9.27118 32.0109C8.72613 35.405 7.85901 41.9456 8.67658 43.8533C8.15631 41.4997 10.1879 34.8848 11.4018 31.3667H11.3771ZM39.3727 29.682C41.8007 27.2541 46.3593 22.4725 46.83 20.441C45.8638 22.6707 40.339 26.8081 37.2669 28.9635C36.4245 29.5581 36.152 30.4005 36.4741 31.3667C37.688 34.9095 39.7444 41.4997 39.1993 43.8533C40.0169 41.9456 39.1498 35.405 38.6047 32.0109C38.4561 31.119 38.7286 30.3014 39.3727 29.682Z" fill="url(#paint3_radial_55_9338)"/>
</g>
<path style="mix-blend-mode:screen" fill-rule="evenodd" clip-rule="evenodd" d="M5.50531 16.3531C8.65173 15.8576 11.2531 15.8081 14.3995 15.709C15.7374 15.6594 16.4063 15.5356 17.0009 14.1729C18.5122 10.754 19.1811 7.9792 21.1383 4.53548C21.3861 4.08954 21.6338 3.64359 21.9807 3.29674C22.7239 2.55349 23.6654 2.90034 23.4919 4.01521C22.8726 8.0783 22.1541 12.1414 21.287 16.1549C20.618 19.2518 18.8095 19.3509 16.0347 19.227C12.69 19.1032 8.13146 18.8306 4.81161 18.3351C1.88817 17.914 3.30034 16.6752 5.50531 16.3531Z" fill="url(#paint4_radial_55_9338)"/>
<path fill-rule="evenodd" clip-rule="evenodd" d="M20.5934 8.22698C21.3366 8.49951 21.51 9.91168 20.9898 11.3982C20.4695 12.8847 19.4289 13.8757 18.6857 13.6031C17.9424 13.3306 17.769 11.9185 18.2893 10.432C18.8096 8.94546 19.8501 7.95446 20.5934 8.22698Z" fill="white"/>
<path fill-rule="evenodd" clip-rule="evenodd" d="M21.9312 4.56018C22.3524 4.75838 22.3771 5.60073 21.9807 6.4183C21.5843 7.26065 20.9402 7.78092 20.519 7.58272C20.0978 7.38452 20.0731 6.54217 20.4695 5.7246C20.8659 4.88225 21.51 4.36198 21.9312 4.56018Z" fill="white"/>
<path style="mix-blend-mode:screen" opacity="0.5" fill-rule="evenodd" clip-rule="evenodd" d="M36.1769 38.2294C37.1679 38.0312 38.1836 38.9726 38.4562 40.3105C38.7287 41.6483 38.1341 42.9118 37.1431 43.11C36.1521 43.3082 35.1363 42.3668 34.8638 41.0289C34.5913 39.6911 35.1859 38.4276 36.1769 38.2294Z" fill="url(#paint5_radial_55_9338)"/>
<path style="mix-blend-mode:screen" opacity="0.5" fill-rule="evenodd" clip-rule="evenodd" d="M40.7602 25.7675C39.4224 26.9072 37.9359 27.7495 36.6228 28.7901C35.9786 29.3103 35.5575 29.9049 35.8052 30.9455C36.0034 31.7878 36.375 32.5559 36.6228 33.3734C37.4651 36.173 36.7219 36.2226 35.2354 34.0424C34.5912 33.0761 33.9966 32.0851 33.4268 31.0694C32.2872 29.0626 32.7083 27.9973 34.6408 26.932C36.3503 25.9905 38.2827 25.272 40.1161 24.6527C41.776 24.0828 42.2962 24.4792 40.7602 25.7675Z" fill="url(#paint6_radial_55_9338)"/>
<defs>
<radialGradient id="paint0_radial_55_9338" cx="0" cy="0" r="1" gradientUnits="userSpaceOnUse" gradientTransform="translate(14.1272 4.63456) scale(46.7008 46.7008)">
<stop stop-color="#F99800"/>
<stop offset="1" stop-color="#F99400"/>
</radialGradient>
<radialGradient id="paint1_radial_55_9338" cx="0" cy="0" r="1" gradientUnits="userSpaceOnUse" gradientTransform="translate(17.3728 17.121) scale(31.0182 31.0182)">
<stop stop-color="#FCEF61"/>
<stop offset="0.11" stop-color="#F7EA5F"/>
<stop offset="0.24" stop-color="#E9DD5A"/>
<stop offset="0.37" stop-color="#D3C851"/>
<stop offset="0.5" stop-color="#B3AA45"/>
<stop offset="0.64" stop-color="#8B8335"/>
<stop offset="0.79" stop-color="#595422"/>
<stop offset="0.93" stop-color="#1F1E0C"/>
<stop offset="1"/>
</radialGradient>
<radialGradient id="paint2_radial_55_9338" cx="0" cy="0" r="1" gradientUnits="userSpaceOnUse" gradientTransform="translate(12.7892 2.62779) scale(41.1016 41.1016)">
<stop stop-color="#FCEF61"/>
<stop offset="0.36" stop-color="#98903A"/>
<stop offset="0.67" stop-color="#46421B"/>
<stop offset="0.89" stop-color="#131207"/>
<stop offset="1"/>
</radialGradient>
<radialGradient id="paint3_radial_55_9338" cx="0" cy="0" r="1" gradientUnits="userSpaceOnUse" gradientTransform="translate(27.3569 31.7631) scale(32.6534 32.6534)">
<stop stop-color="#E49751"/>
<stop offset="1" stop-color="white"/>
</radialGradient>
<radialGradient id="paint4_radial_55_9338" cx="0" cy="0" r="1" gradientUnits="userSpaceOnUse" gradientTransform="translate(12.0954 3.12331) scale(20.6128)">
<stop stop-color="#FFF7CC"/>
<stop offset="1"/>
</radialGradient>
<radialGradient id="paint5_radial_55_9338" cx="0" cy="0" r="1" gradientUnits="userSpaceOnUse" gradientTransform="translate(41.4787 42.1686) scale(10.455 10.455)">
<stop stop-color="#FCF07F"/>
<stop offset="1"/>
</radialGradient>
<radialGradient id="paint6_radial_55_9338" cx="0" cy="0" r="1" gradientUnits="userSpaceOnUse" gradientTransform="translate(44.5508 33.7451) scale(15.7073)">
<stop/>
<stop offset="0.07" stop-color="#1F1E10"/>
<stop offset="0.21" stop-color="#59552D"/>
<stop offset="0.36" stop-color="#8B8446"/>
<stop offset="0.5" stop-color="#B3AB5A"/>
<stop offset="0.63" stop-color="#D3C96A"/>
<stop offset="0.76" stop-color="#E9DE75"/>
<stop offset="0.89" stop-color="#F7EB7C"/>
<stop offset="1" stop-color="#FCF07F"/>
</radialGradient>
</defs>
</svg>
